<svg width="1919" height="320" viewBox="0 0 1919 320" fill="none" xmlns="http://www.w3.org/2000/svg">
<path fill-rule="evenodd" clip-rule="evenodd" d="M1918.9 96C1847.02 101.232 1774.28 104.533 1705.65 104.533C1576.61 104.533 1504.64 126.197 1420.27 151.589C1301.93 187.208 1159.21 230.164 800.421 230.951C308.772 232.029 61.2866 290.341 -1 319.362H138.799C197.422 295.582 430.35 247.802 893.078 246.919C1230.76 246.274 1365.08 211.077 1476.47 181.891C1555.87 161.084 1623.61 143.333 1745.06 143.333C1801.11 143.333 1860.08 141.296 1918.9 137.956V96Z" fill="url(#paint0_linear)" fill-opacity="0.5"/>
<path fill-rule="evenodd" clip-rule="evenodd" d="M241.356 270.069C377.959 231.186 609.405 192.392 953.675 191.316C1334.4 190.125 1485.84 125.12 1611.42 71.2176C1700.94 32.7912 1777.32 0.00709202 1914.24 0.00709202C1915.83 0.00709202 1917.41 0.00473108 1919 3.05176e-05V101.747C1847.12 106.979 1774.38 110.28 1705.75 110.28C1576.71 110.28 1504.74 131.944 1420.37 157.337C1302.03 192.956 1159.31 235.911 800.52 236.698C556.29 237.234 372.311 251.893 241.356 270.069Z" fill="url(#paint1_linear)" fill-opacity="0.5"/>
<defs>
<linearGradient id="paint0_linear" x1="2375.58" y1="67.2094" x2="2028.51" y2="1026.61" gradientUnits="userSpaceOnUse">
<stop stop-color="#E74545"/>
<stop offset="1" stop-color="white" stop-opacity="0"/>
</linearGradient>
<linearGradient id="paint1_linear" x1="2625.12" y1="-56.4753" x2="1956.12" y2="1240.25" gradientUnits="userSpaceOnUse">
<stop stop-color="#71D558"/>
<stop offset="1" stop-color="white" stop-opacity="0"/>
</linearGradient>
</defs>
</svg>
